# xmcd CD database file
#
# Track frame offsets:
#	182
#	17707
#	35032
#	48532
#	64357
#	81682
#	97057
#	115282
#	132007
#	147982
#	163957
#	178582
#
# Disc length: 2553 seconds
#
# Revision: 0
# Processed by: cddbd v1.5.2PL0 Copyright (c) Steve Scherf et al.
# Submitted via: CDex 1.50
#
DISCID=b709f70c
DTITLE=Stan Coster - I Wouldn't Be Dead For Quids
DYEAR=1997
DGENRE=Country
TTITLE0=Stan Coster =Just A Little Girthy
TTITLE1=Stan Coster =The Saxby Rodeo
TTITLE2=Stan Coster =A Drifter With No Destiny
TTITLE3=Stan Coster =Fingers
TTITLE4=Stan Coster =Wealth Made Us Poor
TTITLE5=Stan Coster =A Daylight Saving State
TTITLE6=Stan Coster =Coley
TTITLE7=Stan Coster =They'll Never Beat The Bunny
TTITLE8=Stan Coster =While The Big City Sleeps
TTITLE9=Stan Coster =Happy In My Madness
TTITLE10=Stan Coster =Song Of The Forky Stick
TTITLE11=Stan Coster =I Wouldn't Be Dead For Quids
EXTD=
EXTT0=
EXTT1=
EXTT2=
EXTT3=
EXTT4=
EXTT5=
EXTT6=
EXTT7=
EXTT8=
EXTT9=
EXTT10=
EXTT11=
PLAYORDER=
